<svg width="42" height="32" viewBox="0 0 42 32" fill="none" xmlns="http://www.w3.org/2000/svg">
<path d="M20.0156 3.05843L20.9262 3.93545L21.9105 3.0599C24.6586 0.673679 28.4648 -0.412361 32.2055 0.142353C37.8574 0.981366 42 5.33868 42 10.4473V10.8712C42 13.9042 40.5891 16.8057 38.0953 18.874L23.2723 31.2034C22.657 31.715 21.8449 32 21 32C20.1551 32 19.343 31.715 18.7277 31.2034L3.90387 18.874C1.4134 16.8057 0 13.9042 0 10.8712V10.4473C0 5.33868 4.14422 0.981366 9.79453 0.142353C13.4613 -0.412361 17.3414 0.673679 20.0156 3.05843C20.0156 3.05917 19.9418 3.05843 20.0156 3.05843ZM20.9262 8.89791L17.2348 5.47754C15.4547 3.95592 12.9281 3.23384 10.4426 3.60219C6.68965 4.15982 3.9375 7.05617 3.9375 10.4473V10.8712C3.9375 12.9322 4.89809 14.9055 6.59039 16.3087L21 28.2946L35.4129 16.3087C37.1027 14.9055 38.0625 12.9322 38.0625 10.8712V10.4473C38.0625 7.05617 35.3063 4.15982 31.5574 3.60219C29.0719 3.23384 26.5453 3.95592 24.7652 5.47754L20.9262 8.89791Z" fill="white"/>
</svg>
