<svg width="44" height="44" viewBox="0 0 44 44" fill="none" xmlns="http://www.w3.org/2000/svg">
<rect width="44" height="44" rx="22" fill="white"/>
<path d="M22.5028 16.0903C18.9557 16.0903 16.0945 18.9521 16.0945 22.5C16.0945 26.0479 18.9557 28.9097 22.5028 28.9097C26.0499 28.9097 28.911 26.0479 28.911 22.5C28.911 18.9521 26.0499 16.0903 22.5028 16.0903ZM22.5028 26.6671C20.2105 26.6671 18.3366 24.7983 18.3366 22.5C18.3366 20.2017 20.205 18.3329 22.5028 18.3329C24.8006 18.3329 26.669 20.2017 26.669 22.5C26.669 24.7983 24.795 26.6671 22.5028 26.6671ZM30.6679 15.8281C30.6679 16.6593 29.9986 17.3232 29.1732 17.3232C28.3422 17.3232 27.6785 16.6537 27.6785 15.8281C27.6785 15.0025 28.3477 14.3331 29.1732 14.3331C29.9986 14.3331 30.6679 15.0025 30.6679 15.8281ZM34.9122 17.3455C34.8173 15.3428 34.36 13.5688 32.8932 12.1073C31.432 10.6457 29.6584 10.1883 27.6562 10.0879C25.5926 9.97071 19.4074 9.97071 17.3438 10.0879C15.3472 10.1827 13.5736 10.6401 12.1068 12.1017C10.64 13.5633 10.1882 15.3372 10.0878 17.3399C9.97072 19.4039 9.97072 25.5905 10.0878 27.6545C10.1827 29.6572 10.64 31.4312 12.1068 32.8927C13.5736 34.3543 15.3416 34.8117 17.3438 34.9121C19.4074 35.0293 25.5926 35.0293 27.6562 34.9121C29.6584 34.8173 31.432 34.3599 32.8932 32.8927C34.3544 31.4312 34.8118 29.6572 34.9122 27.6545C35.0293 25.5905 35.0293 19.4095 34.9122 17.3455ZM32.2462 29.8692C31.8112 30.9626 30.969 31.8049 29.8703 32.2456C28.225 32.8983 24.321 32.7477 22.5028 32.7477C20.6846 32.7477 16.775 32.8927 15.1352 32.2456C14.0421 31.8105 13.1999 30.9681 12.7593 29.8692C12.1068 28.2235 12.2574 24.3186 12.2574 22.5C12.2574 20.6814 12.1124 16.7709 12.7593 15.1308C13.1944 14.0374 14.0365 13.1951 15.1352 12.7544C16.7805 12.1017 20.6846 12.2523 22.5028 12.2523C24.321 12.2523 28.2306 12.1073 29.8703 12.7544C30.9635 13.1895 31.8056 14.0319 32.2462 15.1308C32.8988 16.7765 32.7482 20.6814 32.7482 22.5C32.7482 24.3186 32.8988 28.2291 32.2462 29.8692Z" fill="url(#paint0_linear_33_91)"/>
<defs>
<linearGradient id="paint0_linear_33_91" x1="29" y1="6" x2="18.5" y2="35" gradientUnits="userSpaceOnUse">
<stop stop-color="#4F5BD5"/>
<stop offset="0.401326" stop-color="#962FBF"/>
<stop offset="0.549338" stop-color="#D62976"/>
<stop offset="0.717114" stop-color="#FA7E1E"/>
<stop offset="1" stop-color="#FEDA75"/>
</linearGradient>
</defs>
</svg>
