<svg width="52" height="52" viewBox="0 0 52 52" fill="none" xmlns="http://www.w3.org/2000/svg">
<rect width="52" height="52" rx="7" fill="#1CE254" fill-opacity="0.9"/>
<path d="M35 17.4444L32.5556 26H18.3493M33.7778 30.8889H19.1111L16.6667 15H13M22.7778 18.6667L25.2222 21.1111L30.1111 16.2222M20.3333 35.7778C20.3333 36.4528 19.7861 37 19.1111 37C18.4361 37 17.8889 36.4528 17.8889 35.7778C17.8889 35.1028 18.4361 34.5556 19.1111 34.5556C19.7861 34.5556 20.3333 35.1028 20.3333 35.7778ZM33.7778 35.7778C33.7778 36.4528 33.2306 37 32.5556 37C31.8805 37 31.3333 36.4528 31.3333 35.7778C31.3333 35.1028 31.8805 34.5556 32.5556 34.5556C33.2306 34.5556 33.7778 35.1028 33.7778 35.7778Z" stroke="white" stroke-width="2" stroke-linecap="round" stroke-linejoin="round"/>
</svg>
