<svg width="44" height="44" viewBox="0 0 44 44" fill="none" xmlns="http://www.w3.org/2000/svg">
<rect width="44" height="44" rx="22" fill="white"/>
<path d="M32.5331 18.2367C32.5483 18.4226 32.5483 18.6086 32.5483 18.7945C32.5483 24.4656 27.5991 31 18.5533 31C15.7665 31 13.1777 30.2961 11 29.0742C11.396 29.1141 11.7766 29.1273 12.1878 29.1273C14.4873 29.1273 16.6041 28.45 18.2944 27.2945C16.132 27.2547 14.3198 26.0195 13.6954 24.3195C14 24.3593 14.3046 24.3859 14.6244 24.3859C15.066 24.3859 15.5077 24.3328 15.9188 24.2399C13.665 23.8414 11.9746 22.1148 11.9746 20.0297V19.9766C12.6294 20.2953 13.3909 20.4945 14.1979 20.5211C12.873 19.7507 12.0051 18.4359 12.0051 16.9484C12.0051 16.1515 12.2487 15.4211 12.6751 14.7836C15.0964 17.3867 18.736 19.0867 22.8172 19.2726C22.7411 18.9539 22.6954 18.6219 22.6954 18.2898C22.6954 15.9258 24.8883 14 27.6142 14C29.0304 14 30.3096 14.518 31.2081 15.3547C32.3198 15.1688 33.3858 14.8101 34.33 14.3188C33.9644 15.3149 33.1878 16.1516 32.1675 16.6828C33.1574 16.5899 34.1168 16.3508 35 16.0188C34.3301 16.8687 33.4924 17.6257 32.5331 18.2367Z" fill="#3B93EB"/>
</svg>
