<svg width="44" height="44" viewBox="0 0 44 44" fill="none" xmlns="http://www.w3.org/2000/svg">
<rect width="44" height="44" rx="22" fill="white"/>
<path d="M35.4149 15.9729C35.0929 14.8027 34.1441 13.8811 32.9394 13.5683C30.7558 13 22 13 22 13C22 13 13.2442 13 11.0606 13.5683C9.8559 13.8811 8.90711 14.8027 8.58509 15.9729C8 18.0939 8 22.5192 8 22.5192C8 22.5192 8 26.9445 8.58509 29.0655C8.90711 30.2357 9.8559 31.1189 11.0606 31.4317C13.2442 32 22 32 22 32C22 32 30.7558 32 32.9394 31.4317C34.1441 31.1189 35.0929 30.2357 35.4149 29.0655C36 26.9445 36 22.5192 36 22.5192C36 22.5192 36 18.0939 35.4149 15.9729ZM19.1363 26.5371V18.5013L26.4545 22.5193L19.1363 26.5371Z" fill="#FF0000"/>
</svg>
