<svg width="24" height="30" viewBox="0 0 24 30" fill="none" xmlns="http://www.w3.org/2000/svg">
<g clip-path="url(#clip0_35_377)">
<path d="M8.9933 20L8.96917 19.9576L8.95174 19.9152L8.92896 19.8688L8.90617 19.8264L8.88874 19.784L8.86461 19.7416L8.84182 19.6943L8.8244 19.6519L8.80027 19.6095L8.77748 19.5671L8.76005 19.5247L8.73593 19.4773L8.7185 19.4349L8.69437 19.3915L8.67024 19.3491L8.65282 19.3067L8.62869 19.2594L8.6059 19.217L8.58847 19.1746L8.56434 19.1322L8.54156 19.0848L8.52413 19.0424L8.5 19L8.47721 19.0424L8.45979 19.0848L8.43566 19.1322L8.41287 19.1746L8.39544 19.217L8.37266 19.2594L8.34853 19.3067L8.32574 19.3491L8.30831 19.3915L8.28418 19.4349L8.26005 19.4773L8.24263 19.5247L8.19437 19.6095L8.17694 19.6519L8.15282 19.6943L8.12869 19.7416L8.1059 19.784L8.08847 19.8264L8.06434 19.8688L8.04022 19.9152L8.02279 19.9576L8 20H9H8.9933Z" fill="#E4DFDE"/>
<path d="M10.868 9.097V6.205C10.868 5.745 10.671 5.531 10.261 5.531H9.594V9.771H10.261C10.671 9.771 10.868 9.557 10.868 9.097ZM8.354 20.336L8.367 20.293L8.385 20.246L8.403 20.203L8.416 20.16L8.433 20.117L8.451 20.069L8.469 20.026L8.482 19.983L8.518 19.897L8.531 19.849L8.549 19.806L8.567 19.762L8.58 19.719L8.597 19.676L8.615 19.628L8.632 19.585L8.645 19.542L8.662 19.499L8.68 19.451L8.693 19.408L8.71 19.365L8.728 19.408L8.741 19.451L8.758 19.499L8.776 19.542L8.789 19.585L8.806 19.628L8.824 19.676L8.837 19.719L8.855 19.762L8.873 19.806L8.886 19.849L8.904 19.897L8.917 19.94L8.934 19.983L8.952 20.026L8.965 20.069L8.982 20.117L9 20.16L9.013 20.203L9.03 20.246L9.047 20.293L9.06 20.336L9.078 20.379H8.332L8.349 20.336H8.354ZM21.821 0H2.18C0.587 0 0 0.633 0 2.349V23.05L0.023 23.591C0.06 23.966 0.066 24.328 0.389 24.742C0.421 24.782 0.751 25.047 0.751 25.047L1.25 25.297L10.921 29.663C11.423 29.911 11.633 30.007 11.996 30H12C12.364 30.008 12.575 29.911 13.075 29.663L22.749 25.298C22.949 25.211 23.071 25.142 23.248 25.048L23.61 24.743C23.933 24.33 23.94 23.967 23.976 23.593L23.999 23.052V2.349C24 0.633 23.412 0 21.821 0ZM13.225 3.987H14.85V15.489H13.225V3.987ZM12.517 19.622L12.539 19.66L12.561 19.622L12.583 19.579L12.609 19.539L12.631 19.496L12.653 19.456L12.675 19.413L12.701 19.373L12.723 19.33L12.745 19.29L12.767 19.252L12.794 19.209L12.816 19.169L12.838 19.126L12.86 19.086L12.886 19.043L12.908 19.003L12.93 18.96L12.952 18.92L12.974 18.88L13 18.837L13.022 18.799L13.044 18.756L13.066 18.716L13.093 18.674L13.115 18.634L13.137 18.594L13.159 18.551L13.185 18.513L13.207 18.47L13.229 18.43L13.251 18.387L13.278 18.349L13.3 18.306L13.322 18.268H14.227V21.744H13.374L13.375 19.711L13.353 19.749L13.327 19.793L13.305 19.831L13.278 19.871L13.256 19.914L13.229 19.954L13.207 19.994L13.185 20.037L13.159 20.077L13.137 20.115L13.11 20.155L13.088 20.198L13.061 20.238L13.039 20.278L13.017 20.321L12.991 20.361L12.969 20.401L12.942 20.444L12.92 20.484L12.893 20.524L12.871 20.567L12.849 20.607L12.823 20.647L12.801 20.69L12.774 20.73L12.752 20.77L12.725 20.81L12.703 20.853L12.681 20.893L12.655 20.933L12.633 20.976L12.607 21.014L12.585 21.054L12.559 21.097L12.537 21.137H12.52L12.493 21.094L12.471 21.054L12.444 21.011L12.422 20.971L12.396 20.928L12.374 20.888L12.348 20.845L12.326 20.805L12.299 20.762L12.277 20.722L12.251 20.679L12.229 20.639L12.202 20.596L12.18 20.556L12.154 20.513L12.132 20.473L12.106 20.43L12.08 20.39L12.058 20.347L12.032 20.307L12.01 20.264L11.984 20.224L11.962 20.181L11.936 20.141L11.914 20.098L11.888 20.06L11.866 20.017L11.839 19.977L11.817 19.934L11.79 19.894L11.768 19.851L11.742 19.813L11.72 19.769L11.694 19.729V21.775H10.856V18.3H11.761L11.783 18.338L11.805 18.381L11.831 18.419L11.853 18.462L11.875 18.502L11.897 18.545L11.919 18.583L11.946 18.626L11.968 18.666L11.99 18.706L12.012 18.748L12.034 18.788L12.06 18.831L12.082 18.869L12.104 18.912L12.126 18.952L12.153 18.992L12.175 19.035L12.197 19.075L12.219 19.118L12.241 19.158L12.268 19.201L12.29 19.241L12.312 19.284L12.334 19.322L12.356 19.362L12.383 19.405L12.405 19.445L12.427 19.488L12.449 19.528L12.471 19.571L12.497 19.611L12.519 19.624L12.517 19.622ZM7.968 3.987H10.518C11.839 3.987 12.492 4.693 12.492 6.123V9.179C12.492 10.609 11.839 11.315 10.518 11.315H9.591V15.489H7.967L7.968 3.987ZM3.54 3.987H7.153V5.58H5.165V8.834H7.078V10.426H5.165V13.895H7.184V15.487H3.541V3.987H3.54ZM6.614 21.296L6.583 21.325L6.546 21.353L6.515 21.377L6.48 21.406L6.445 21.43L6.408 21.458L6.371 21.482L6.336 21.506L6.296 21.53L6.256 21.553L6.216 21.577L6.176 21.596L6.136 21.62L6.092 21.639L6.052 21.658L6.007 21.677L5.967 21.696L5.848 21.739L5.804 21.753L5.764 21.767L5.72 21.777L5.68 21.787L5.636 21.796L5.591 21.806L5.547 21.811L5.498 21.816L5.454 21.821L5.405 21.826L5.361 21.831L5.312 21.836H5.122L5.078 21.831L5.029 21.826L4.941 21.816L4.896 21.811L4.808 21.792L4.769 21.783L4.724 21.773L4.684 21.759L4.64 21.749L4.6 21.735L4.56 21.716L4.52 21.702L4.476 21.683L4.436 21.664L4.357 21.626L4.317 21.602L4.28 21.578L4.24 21.554L4.205 21.531L4.168 21.507L4.131 21.478L4.096 21.45L4.059 21.421L3.997 21.363L3.966 21.33L3.935 21.301L3.873 21.234L3.847 21.2L3.821 21.16L3.794 21.127L3.772 21.087L3.746 21.047L3.724 21.007L3.702 20.967L3.692 20.932L3.67 20.892L3.653 20.851L3.635 20.808L3.617 20.765L3.6 20.722L3.587 20.684L3.569 20.641L3.56 20.598L3.547 20.555L3.538 20.508L3.525 20.465L3.518 20.418L3.512 20.375L3.503 20.327L3.499 20.284L3.495 20.236L3.491 20.189L3.487 20.141V19.984L3.491 19.931V19.884L3.5 19.784L3.509 19.737L3.513 19.689L3.522 19.646L3.535 19.598L3.544 19.55L3.557 19.507L3.57 19.459L3.583 19.416L3.601 19.368L3.618 19.325L3.636 19.282L3.654 19.239L3.671 19.196L3.693 19.153L3.715 19.115L3.737 19.074L3.759 19.036L3.781 18.996L3.807 18.956L3.834 18.918L3.86 18.878L3.886 18.844L3.917 18.811L3.944 18.777L3.975 18.743L4.006 18.71L4.037 18.681L4.074 18.647L4.105 18.619L4.142 18.59L4.179 18.566L4.216 18.537L4.253 18.513L4.288 18.489L4.328 18.465L4.368 18.441L4.408 18.417L4.487 18.379L4.531 18.355L4.568 18.341L4.612 18.327L4.652 18.308L4.692 18.298L4.732 18.284L4.777 18.274L4.816 18.26L4.86 18.25L4.904 18.245L4.948 18.236L5.125 18.217H5.315L5.412 18.227H5.447L5.491 18.232L5.54 18.242L5.58 18.247L5.668 18.266L5.787 18.295L5.827 18.309L5.867 18.318L5.902 18.332L5.942 18.346L6.021 18.384L6.061 18.403L6.101 18.427L6.14 18.446L6.177 18.47L6.217 18.494L6.254 18.518L6.294 18.542L6.329 18.571L6.366 18.595L6.403 18.624L6.438 18.652L6.473 18.686L6.51 18.715L6.484 18.753L6.453 18.787L6.426 18.827L6.395 18.865L6.368 18.905L6.342 18.938L6.311 18.978L6.285 19.018L6.258 19.052L6.227 19.09L6.2 19.13L6.169 19.168L6.142 19.202L6.116 19.242L6.085 19.28L6.059 19.32L6.028 19.354L6.002 19.392L5.965 19.363L5.93 19.33L5.895 19.306L5.858 19.277L5.823 19.253L5.786 19.229L5.751 19.205L5.706 19.177L5.671 19.157L5.635 19.139L5.599 19.125L5.559 19.111L5.52 19.097L5.48 19.087L5.392 19.068L5.348 19.063L5.298 19.057L5.249 19.053H5.157L5.113 19.057L5.073 19.062L5.029 19.072L4.989 19.082L4.91 19.111L4.87 19.13L4.83 19.149L4.76 19.197L4.723 19.221L4.692 19.25L4.661 19.278L4.63 19.307L4.604 19.341L4.573 19.374L4.546 19.414L4.524 19.448L4.502 19.486L4.48 19.529L4.458 19.567L4.441 19.61L4.428 19.653L4.411 19.696L4.398 19.744L4.389 19.791L4.38 19.834L4.371 19.887L4.367 19.934L4.363 19.982V20.092L4.367 20.14L4.371 20.183L4.375 20.231L4.393 20.317L4.402 20.36L4.415 20.403L4.428 20.441L4.446 20.489L4.463 20.532L4.485 20.575L4.53 20.655L4.556 20.695L4.583 20.729L4.614 20.762L4.64 20.796L4.671 20.825L4.708 20.853L4.743 20.882L4.78 20.906L4.815 20.93L4.855 20.949L4.895 20.968L4.935 20.987L4.979 21.001L5.023 21.015L5.068 21.025L5.112 21.035L5.156 21.04L5.204 21.045H5.306L5.403 21.035L5.447 21.03L5.535 21.011L5.579 20.997L5.619 20.987L5.659 20.968L5.696 20.949L5.736 20.93L5.767 20.911L5.802 20.887V20.447H5.156V19.75H6.612V21.302L6.614 21.296ZM6.941 21.769L6.977 21.683L6.994 21.64L7.011 21.592L7.024 21.549L7.042 21.506L7.06 21.463L7.077 21.42L7.095 21.377L7.113 21.33L7.13 21.287L7.148 21.244L7.161 21.201L7.179 21.158L7.196 21.115L7.214 21.067L7.232 21.024L7.249 20.981L7.267 20.938L7.285 20.895L7.298 20.852L7.315 20.804L7.332 20.761L7.35 20.718L7.367 20.675L7.385 20.632L7.403 20.589L7.42 20.541L7.433 20.498L7.451 20.455L7.469 20.412L7.486 20.369L7.504 20.326L7.521 20.279L7.539 20.236L7.556 20.193L7.569 20.15L7.587 20.107L7.604 20.064L7.622 20.016L7.64 19.973L7.657 19.93L7.675 19.887L7.692 19.844L7.705 19.801L7.723 19.759L7.74 19.711L7.758 19.668L7.775 19.625L7.793 19.582L7.811 19.539L7.828 19.496L7.841 19.449L7.859 19.406L7.876 19.363L7.894 19.32L7.911 19.277L7.929 19.234L7.946 19.186L7.964 19.143L7.977 19.1L7.995 19.057L8.012 19.014L8.03 18.971L8.048 18.923L8.065 18.88L8.082 18.837L8.1 18.794L8.113 18.751L8.131 18.708L8.149 18.66L8.167 18.617L8.184 18.574L8.202 18.531L8.22 18.488L8.237 18.445L8.25 18.397L8.267 18.354L8.285 18.311L8.302 18.268H9.119L9.137 18.311L9.155 18.354L9.172 18.397L9.189 18.445L9.202 18.488L9.219 18.531L9.255 18.617L9.273 18.66L9.29 18.708L9.308 18.751L9.326 18.794L9.339 18.837L9.357 18.88L9.374 18.923L9.392 18.971L9.411 19.016L9.429 19.059L9.447 19.102L9.464 19.145L9.477 19.188L9.495 19.236L9.512 19.279L9.53 19.322L9.547 19.365L9.565 19.408L9.582 19.451L9.6 19.498L9.613 19.541L9.63 19.584L9.666 19.67L9.684 19.713L9.701 19.761L9.719 19.803L9.736 19.846L9.749 19.889L9.766 19.932L9.784 19.975L9.801 20.018L9.819 20.066L9.837 20.109L9.855 20.152L9.872 20.195L9.885 20.238L9.902 20.281L9.92 20.328L9.937 20.371L9.955 20.414L9.973 20.457L9.99 20.5L10.008 20.543L10.021 20.591L10.039 20.634L10.075 20.72L10.092 20.763L10.11 20.806L10.127 20.854L10.145 20.897L10.158 20.94L10.194 21.026L10.211 21.069L10.229 21.117L10.247 21.16L10.265 21.203L10.283 21.246L10.296 21.289L10.313 21.332L10.331 21.38L10.349 21.423L10.367 21.466L10.384 21.509L10.42 21.594L10.433 21.642L10.45 21.685L10.468 21.728L10.485 21.771H9.574L9.556 21.728L9.543 21.685L9.526 21.642L9.508 21.594L9.495 21.551L9.477 21.508L9.459 21.465L9.446 21.421L9.428 21.378L9.41 21.335L9.397 21.292L9.379 21.245L9.361 21.202L9.348 21.159L9.33 21.116H8.076L8.059 21.159L8.047 21.202L8.01 21.293L7.997 21.336L7.979 21.379L7.961 21.422L7.948 21.465L7.931 21.508L7.913 21.551L7.9 21.595L7.882 21.642L7.865 21.685L7.852 21.728L7.834 21.771H6.943L6.941 21.769ZM11.924 27.576L7.372 25.89H16.671L11.925 27.576H11.924ZM17.453 21.769H14.88V18.293H17.431V19.081H15.723V19.649H17.259V20.389H15.723V20.981H17.453V21.769ZM15.707 13.452V6.024C15.707 4.594 16.36 3.888 17.681 3.888H18.471C19.792 3.888 20.429 4.578 20.429 6.008V8.358H18.834V6.106C18.834 5.646 18.637 5.432 18.227 5.432H17.954C17.529 5.432 17.331 5.645 17.331 6.106V13.369C17.331 13.829 17.529 14.043 17.954 14.043H18.258C18.666 14.043 18.865 13.829 18.865 13.369V10.772H20.46V13.45C20.46 14.88 19.807 15.586 18.487 15.586H17.682C16.361 15.586 15.708 14.88 15.708 13.45L15.707 13.452ZM20.507 20.699V20.761L20.503 20.814L20.498 20.861L20.494 20.914L20.485 20.961L20.472 21.009L20.463 21.052L20.45 21.1L20.433 21.143L20.415 21.183L20.398 21.226L20.354 21.306L20.328 21.346L20.306 21.386L20.28 21.42L20.249 21.454L20.223 21.482L20.186 21.516L20.155 21.545L20.118 21.573L20.083 21.597L20.046 21.626L20.006 21.65L19.966 21.669L19.926 21.692L19.838 21.73L19.75 21.759L19.71 21.773L19.666 21.783L19.626 21.793L19.586 21.802L19.542 21.812L19.498 21.817L19.458 21.822L19.414 21.827L19.366 21.832L19.322 21.837H19.136L19.092 21.832H19.043L18.955 21.822L18.906 21.817L18.862 21.807L18.818 21.802L18.774 21.793L18.736 21.773L18.692 21.765L18.648 21.755L18.604 21.741L18.564 21.731L18.476 21.702L18.436 21.683L18.392 21.669L18.352 21.655L18.308 21.636L18.268 21.617L18.228 21.598L18.189 21.574L18.149 21.555L18.109 21.534L18.074 21.51L18.034 21.486L17.999 21.462L17.962 21.438L17.892 21.381L17.855 21.352L17.82 21.324L17.789 21.295L17.752 21.261L17.779 21.221L17.81 21.187L17.836 21.147L17.867 21.107L17.893 21.073L17.919 21.033L17.95 20.993L17.976 20.959L18.007 20.919L18.033 20.885L18.064 20.845L18.09 20.805L18.117 20.771L18.148 20.731L18.175 20.691L18.206 20.657L18.232 20.617L18.267 20.646L18.307 20.675L18.344 20.704L18.384 20.732L18.419 20.756L18.459 20.785L18.494 20.809L18.534 20.828L18.569 20.852L18.688 20.91L18.728 20.924L18.768 20.943L18.812 20.957L18.856 20.971L18.896 20.985L18.94 20.995L18.984 21.004L19.028 21.014L19.077 21.019L19.121 21.028H19.165L19.214 21.033H19.311L19.36 21.028L19.404 21.019L19.483 21L19.52 20.986L19.551 20.967L19.586 20.938L19.612 20.905L19.63 20.865L19.643 20.822L19.648 20.774V20.765L19.643 20.707L19.625 20.66L19.603 20.626L19.572 20.598L19.537 20.569L19.5 20.55L19.46 20.531L19.415 20.512L19.362 20.488L19.331 20.478L19.296 20.468L19.256 20.454L19.216 20.444L19.172 20.43L19.128 20.42L19.079 20.406L19.035 20.397L18.987 20.383L18.943 20.373L18.899 20.359L18.855 20.349L18.811 20.335L18.771 20.321L18.727 20.311L18.687 20.297L18.647 20.283L18.607 20.269L18.558 20.25L18.47 20.212L18.43 20.214L18.39 20.19L18.346 20.166L18.309 20.142L18.269 20.118L18.234 20.09L18.199 20.066L18.168 20.037L18.137 20.004L18.106 19.97L18.079 19.936L18.053 19.902L18.031 19.869L18.01 19.829L17.988 19.786L17.97 19.753L17.956 19.714L17.943 19.671L17.93 19.633L17.921 19.585L17.912 19.542L17.903 19.446L17.899 19.393V19.283L17.903 19.235L17.908 19.192L17.912 19.144L17.921 19.101L17.93 19.058L17.943 19.015L17.952 18.972L17.969 18.929L17.987 18.886L18.005 18.843L18.049 18.757L18.075 18.719L18.102 18.679L18.133 18.639L18.164 18.606L18.195 18.566L18.232 18.532L18.299 18.48L18.334 18.451L18.369 18.427L18.409 18.403L18.448 18.384L18.488 18.36L18.528 18.341L18.572 18.327L18.616 18.308L18.656 18.294L18.691 18.284L18.731 18.274L18.771 18.264L18.815 18.254L18.855 18.244L19.031 18.225H19.221L19.318 18.235H19.362L19.41 18.24L19.454 18.249L19.503 18.254L19.547 18.264L19.587 18.274L19.675 18.293L19.715 18.303L19.759 18.317L19.799 18.331L19.839 18.341L19.883 18.36L19.923 18.374L20.002 18.412L20.046 18.431L20.086 18.455L20.121 18.474L20.161 18.498L20.201 18.522L20.236 18.546L20.276 18.575L20.311 18.599L20.348 18.628L20.385 18.656L20.42 18.685L20.394 18.725L20.372 18.763L20.346 18.803L20.319 18.843L20.293 18.886L20.271 18.926L20.244 18.964L20.218 19.004L20.196 19.044L20.17 19.082L20.143 19.122L20.121 19.162L20.095 19.205L20.068 19.245L20.042 19.283L20.02 19.323L19.994 19.361L19.957 19.333L19.918 19.309L19.881 19.285L19.846 19.257L19.806 19.238L19.769 19.214L19.73 19.195L19.693 19.176L19.656 19.146L19.619 19.127L19.579 19.113L19.544 19.094L19.495 19.08L19.451 19.066L19.407 19.052L19.275 19.023L19.187 19.013L19.147 19.008H19.05L19.001 19.018L18.957 19.028L18.917 19.038L18.882 19.057L18.851 19.076L18.812 19.116L18.786 19.159L18.769 19.202L18.764 19.25V19.26L18.769 19.322L18.791 19.374L18.808 19.403L18.839 19.437L18.879 19.461L18.914 19.484L18.958 19.503L19.007 19.522L19.06 19.541L19.097 19.55L19.132 19.564L19.172 19.574L19.212 19.588L19.256 19.598L19.305 19.612L19.353 19.626L19.402 19.64L19.451 19.65L19.495 19.664L19.544 19.678L19.588 19.688L19.676 19.717L19.716 19.731L19.76 19.745L19.8 19.759L19.84 19.773L19.889 19.792L19.933 19.816L19.977 19.835L20.021 19.859L20.061 19.883L20.101 19.907L20.136 19.931L20.173 19.96L20.21 19.984L20.245 20.017L20.282 20.051L20.312 20.091L20.343 20.124L20.369 20.164L20.396 20.207L20.418 20.245L20.44 20.288L20.458 20.326L20.471 20.369L20.484 20.412L20.492 20.455L20.501 20.503L20.51 20.551L20.515 20.599L20.519 20.651L20.51 20.698L20.507 20.699Z" fill="black"/>
</g>
<defs>
<clipPath id="clip0_35_377">
<rect width="24" height="30" fill="white"/>
</clipPath>
</defs>
</svg>
