<svg width="22" height="24" viewBox="0 0 22 24" fill="none" xmlns="http://www.w3.org/2000/svg">
<path d="M10.8284 5.77922C10.8804 5.80266 10.922 5.8589 10.9845 5.8589C11.0417 5.8589 11.1302 5.84015 11.1354 5.78859C11.1458 5.72297 11.0365 5.68079 10.9689 5.65267C10.8804 5.61986 10.766 5.6058 10.6827 5.64798C10.6619 5.65736 10.6411 5.68079 10.6515 5.69954C10.6671 5.76047 10.7712 5.7511 10.8284 5.77922ZM9.68898 5.8589C9.75141 5.8589 9.79303 5.80266 9.84506 5.77922C9.90229 5.7511 10.0063 5.76047 10.0272 5.70423C10.0376 5.68548 10.0168 5.66204 9.99594 5.65267C9.9127 5.61048 9.79823 5.62455 9.70979 5.65736C9.64215 5.68548 9.53289 5.72766 9.5433 5.79328C9.5485 5.84015 9.63695 5.86359 9.68898 5.8589ZM21.1924 18.9266C21.0051 18.7391 20.9166 18.3829 20.8178 18.0032C20.7241 17.6235 20.6149 17.2158 20.2715 16.9533C20.2038 16.9017 20.1362 16.8549 20.0634 16.8174C19.9957 16.7799 19.9229 16.7471 19.85 16.7236C20.3287 15.444 20.1414 14.1691 19.6575 13.0161C19.0644 11.6053 18.0291 10.3726 17.2382 9.52891C16.3486 8.52118 15.4849 7.56501 15.5005 6.15419C15.5265 4.00281 15.7658 0.00470066 11.5568 1.35539e-05C6.22911 -0.00936067 7.56103 4.84649 7.5038 6.33699C7.41535 7.43377 7.17082 8.2962 6.33317 9.36955C5.34984 10.4241 3.96589 12.1256 3.31034 13.902C2.99817 14.741 2.85249 15.594 2.98777 16.4002C2.64959 16.6721 2.39465 17.0892 2.1241 17.347C1.90559 17.5486 1.58821 17.6235 1.23963 17.736C0.891039 17.8485 0.511235 18.0173 0.277109 18.4157C0.16785 18.5985 0.13143 18.7953 0.13143 18.9969C0.13143 19.1797 0.162647 19.3672 0.193864 19.5499C0.256297 19.9296 0.323934 20.2858 0.235486 20.5249C-0.0350594 21.1998 -0.0714791 21.6685 0.121025 22.0107C0.318731 22.3528 0.714144 22.5028 1.16679 22.5872C2.06687 22.7559 3.28953 22.7137 4.25205 23.1731C5.2822 23.6605 6.32797 23.834 7.16041 23.6605C7.76394 23.5387 8.25821 23.2106 8.50794 22.7137C9.15829 22.7091 9.87628 22.4606 11.0209 22.4044C11.7961 22.3482 12.769 22.6528 13.8876 22.5966C13.9189 22.7044 13.9605 22.8122 14.0177 22.9106V22.9153C14.4495 23.698 15.256 24.0543 16.1144 23.9933C16.9781 23.9324 17.8886 23.4777 18.6274 22.6856C19.335 21.9169 20.5004 21.5982 21.2756 21.1764C21.6606 20.9655 21.9728 20.703 21.9988 20.3186C22.0196 19.9343 21.7699 19.5078 21.1924 18.9266ZM10.9793 4.09186C11.4891 3.05132 12.7586 3.07007 13.2685 4.07311C13.6067 4.73868 13.4558 5.52143 13.0448 5.9667C12.9615 5.92921 12.7378 5.84484 12.3892 5.73704C12.4465 5.68079 12.5505 5.61048 12.5921 5.52143C12.8419 4.96835 12.5817 4.25591 12.1187 4.24185C11.7389 4.21841 11.3955 4.74806 11.5048 5.31988C11.2914 5.22614 11.0157 5.15583 10.8284 5.11365C10.7764 4.79024 10.8128 4.42933 10.9793 4.09186ZM8.86173 3.55284C9.38721 3.55284 9.94391 4.21841 9.85547 5.12302C9.67337 5.1699 9.48607 5.2402 9.32478 5.33863C9.38721 4.92148 9.15309 4.39652 8.82531 4.41996C8.38828 4.45277 8.31544 5.41363 8.73166 5.73704C8.78369 5.77453 8.83051 5.72766 8.4247 5.99483C7.61306 5.31051 7.8784 3.55284 8.86173 3.55284ZM8.15415 6.39792C8.47672 6.18231 8.86173 5.92921 8.88774 5.90577C9.13228 5.69954 9.59012 5.2402 10.3393 5.2402C10.7087 5.2402 11.151 5.34801 11.6869 5.65736C12.0146 5.84953 12.2748 5.86359 12.8627 6.09326C13.2997 6.25731 13.5755 6.54791 13.409 6.94631C13.2737 7.2791 12.8367 7.62125 12.2279 7.79468C11.6504 7.96341 11.1978 8.54461 10.2405 8.49306C10.0376 8.48368 9.87628 8.44619 9.741 8.39463C9.32478 8.23058 9.10626 7.90717 8.70044 7.69156C8.253 7.46658 8.01367 7.2041 7.93563 6.97443C7.86279 6.74476 7.93563 6.55259 8.15415 6.39792ZM8.32584 22.0529C8.18537 23.698 6.04181 23.6652 4.40813 22.8965C2.8525 22.156 0.839011 22.5919 0.42799 21.8701C0.303123 21.6498 0.303123 21.2748 0.563263 20.6327V20.6233C0.68813 20.2671 0.594479 19.8734 0.532046 19.5031C0.469612 19.1375 0.438395 18.8 0.578871 18.5657C0.760969 18.2516 1.02111 18.1391 1.34889 18.036C1.88477 17.8626 1.96282 17.8766 2.36863 17.572C2.65479 17.3048 2.8629 16.9674 3.11264 16.7283C3.37798 16.4705 3.63292 16.3487 4.03353 16.4049C4.45496 16.4611 4.81915 16.7236 5.17294 17.1548L6.19269 18.8234C6.68696 19.7562 8.4351 21.092 8.32584 22.0529ZM8.253 20.8389C8.03969 20.5296 7.75353 20.2015 7.5038 19.9202C7.8732 19.9202 8.2426 19.8171 8.37267 19.5031C8.49233 19.2125 8.37267 18.8047 7.98766 18.336C7.28528 17.4829 5.99499 16.8127 5.99499 16.8127C5.29261 16.419 4.8972 15.9362 4.7151 15.4112C4.533 14.8863 4.55901 14.3191 4.69949 13.7614C4.97004 12.688 5.66721 11.6428 6.11465 10.9866C6.23432 10.9069 6.15627 11.1366 5.66201 11.9615C5.21977 12.7161 4.39252 14.4597 5.52673 15.8237C5.55795 14.8535 5.81289 13.8645 6.24472 12.9411C6.86906 11.6569 8.18537 9.43048 8.28942 7.65875C8.34665 7.69625 8.52875 7.80874 8.612 7.85092C8.85133 7.97747 9.03342 8.16496 9.26755 8.3337C9.9127 8.80241 10.7503 8.76491 11.4735 8.38994C11.7961 8.22589 12.0563 8.03841 12.3008 7.9681C12.8159 7.8228 13.2269 7.56501 13.461 7.26503C13.8616 8.68992 14.7981 10.7476 15.3964 11.7506C15.7138 12.2849 16.3486 13.4145 16.6243 14.7785C16.796 14.7738 16.9885 14.7972 17.1914 14.8441C17.9094 13.1708 16.5827 11.3663 15.9792 10.8647C15.7346 10.6491 15.7242 10.5554 15.8439 10.5601C16.4994 11.085 17.3631 12.1396 17.6753 13.3255C17.821 13.8692 17.847 14.4363 17.6961 14.9988C18.5493 15.3175 19.5639 15.8378 19.2933 16.6299C19.1789 16.6252 19.1269 16.6299 19.0748 16.6299C19.2413 16.1565 18.8719 15.8049 17.8886 15.4065C16.8688 15.0035 16.0156 15.0035 15.8959 15.9924C15.2664 16.1893 14.9438 16.6814 14.7825 17.272C14.6368 17.797 14.5952 18.4297 14.5536 19.1422C14.5276 19.5031 14.3663 19.9858 14.1998 20.5014C12.5297 21.5748 10.2093 22.0435 8.253 20.8389ZM21.645 20.2999C21.5982 21.0873 19.5015 21.2326 18.3568 22.4794C17.6701 23.2153 16.8272 23.623 16.0884 23.6746C15.3496 23.7262 14.7097 23.4496 14.3351 22.77C14.0905 22.2497 14.2102 21.6873 14.3923 21.0686C14.5848 20.403 14.871 19.7187 14.9074 19.1656C14.949 18.4532 14.9958 17.8298 15.1259 17.3517C15.2612 16.8689 15.4693 16.5455 15.8387 16.3627C15.8543 16.3533 15.8751 16.3487 15.8907 16.3393C15.9323 16.958 16.2705 17.5861 16.8688 17.722C17.5244 17.8766 18.4661 17.3704 18.8667 16.958C19.335 16.9439 19.6836 16.9158 20.0425 17.197C20.5576 17.5954 20.4119 18.6172 20.9322 19.1469C21.4837 19.6906 21.6606 20.0608 21.645 20.2999ZM8.35706 6.96975C8.46111 7.0588 8.60159 7.18067 8.77328 7.30253C9.11667 7.54626 9.59533 7.79936 10.1936 7.79936C10.7972 7.79936 11.3643 7.52283 11.8481 7.29316C12.1031 7.17129 12.4152 6.96506 12.6182 6.8057C12.8211 6.64634 12.9251 6.51041 12.7794 6.49635C12.6338 6.48229 12.6442 6.61821 12.4673 6.73539C12.2383 6.88538 11.9626 7.08224 11.7441 7.19473C11.3591 7.39159 10.7295 7.67281 10.1884 7.67281C9.64735 7.67281 9.21552 7.44783 8.89295 7.21816C8.73166 7.10099 8.59639 6.98381 8.49233 6.89475C8.41429 6.82913 8.39348 6.67915 8.26861 6.66508C8.19577 6.6604 8.17496 6.83851 8.35706 6.96975Z" fill="black"/>
</svg>
