<svg width="22" height="28" viewBox="0 0 22 28" fill="none" xmlns="http://www.w3.org/2000/svg">
<path d="M10.5094 0.0378945C10.6714 -0.0479722 10.9114 0.0154945 10.9674 0.193761C11.0274 0.340295 10.9234 0.474694 10.8384 0.588561C10.2344 1.39963 9.83442 2.34136 9.64442 3.31576C9.52942 3.36243 9.49642 3.47629 9.53242 3.58363L9.70342 3.63683C10.8754 3.53976 12.0634 3.55936 13.2174 3.79269C15.3347 4.20439 17.2729 5.19466 18.7854 6.63749C20.3013 8.07941 21.3379 9.89975 21.7704 11.8791C22.2434 14.0164 21.9794 16.291 21.0324 18.2808C19.0254 22.3446 15.6414 25.782 11.5004 27.9614C11.3664 28.0202 11.1744 28.023 11.0824 27.897C10.9744 27.7654 11.0194 27.5778 11.1254 27.4574C11.6844 26.7191 12.0734 25.8707 12.2854 24.9859C12.3264 24.802 12.3824 24.6163 12.3654 24.4278C12.2974 24.3438 12.1844 24.369 12.0884 24.3718C10.0784 24.5622 8.01042 24.2224 6.19442 23.3815C4.24942 22.4939 2.59842 21.0426 1.50742 19.2776C0.489645 17.6388 -0.030966 15.7723 0.00142427 13.8783C0.00842427 12.1479 0.506424 10.4315 1.38442 8.91576C3.42842 5.20016 6.63642 2.06416 10.5094 0.0378945ZM10.3964 9.96856C9.79651 10.0513 9.22207 10.2513 8.71063 10.5554C8.19919 10.8595 7.76227 11.261 7.42842 11.7335C6.97542 12.384 6.70042 13.1578 6.70642 13.9408C6.68142 14.999 7.10224 16.0242 7.87842 16.7959C8.55305 17.4783 9.46228 17.9187 10.4484 18.041C11.4394 18.1651 12.4744 17.9448 13.3144 17.4296C14.178 16.9046 14.8137 16.1104 15.1084 15.1887C15.3648 14.3904 15.3556 13.5382 15.0818 12.7449C14.8081 11.9517 14.2828 11.2546 13.5754 10.746C13.1274 10.4256 12.6154 10.1918 12.0693 10.0584C11.5233 9.9251 10.9542 9.89486 10.3954 9.96949L10.3964 9.96856Z" fill="#FF5400"/>
</svg>
