<svg width="23" height="24" viewBox="0 0 23 24" fill="none" xmlns="http://www.w3.org/2000/svg">
<path d="M22.7965 18.0772C22.3453 18.748 21.2473 19.2252 21.2473 19.2252L13.0579 22.7024V20.137L19.0831 17.5953C19.7659 17.3071 19.8737 16.8961 19.3147 16.6787C18.7597 16.4614 17.7535 16.5228 17.0707 16.8157L13.0579 18.4929V15.8283C13.9842 15.4598 14.9385 15.1858 16.0805 15.0346C17.7136 14.822 19.71 15.063 21.2792 15.7669C23.0441 16.4283 23.2437 17.4063 22.7965 18.0772ZM13.8365 13.7071V7.14016C13.8365 6.37008 13.7167 5.66142 13.1058 5.45827C12.6386 5.27874 12.3471 5.7937 12.3471 6.56378V23L8.60183 21.5921V2C10.195 2.34961 12.5148 3.17638 13.7606 3.67244C16.935 4.9622 18.009 6.5685 18.009 10.1827C18.009 13.7024 16.1723 15.0394 13.8365 13.7071ZM1.72609 19.8677C-0.0866768 19.263 -0.390136 18.0016 0.43639 17.2787C1.19903 16.6079 2.50071 16.1024 2.50071 16.1024L7.87113 13.8441V16.4189L4.00602 18.0535C3.32324 18.3417 3.21943 18.7528 3.77444 18.9701C4.32945 19.1874 5.33565 19.126 6.01843 18.8331L7.87113 18.0346V20.3402C5.8108 20.7795 3.82235 20.685 1.72609 19.8677Z" fill="url(#paint0_linear_33_327)"/>
<defs>
<linearGradient id="paint0_linear_33_327" x1="11.0007" y1="2.50394" x2="11.0007" y2="24.6772" gradientUnits="userSpaceOnUse">
<stop stop-color="#3D80BF" stop-opacity="0.85"/>
<stop offset="0.416667" stop-color="#2E64A8" stop-opacity="0.85"/>
<stop offset="1" stop-color="#16337D"/>
</linearGradient>
</defs>
</svg>
