<svg width="22" height="23" viewBox="0 0 22 23" fill="none" xmlns="http://www.w3.org/2000/svg">
<path d="M16.0518 14.3841C18.017 16.9016 18.9219 18.9648 18.465 19.8874C18.1145 20.5875 15.9498 21.9552 14.3573 22.4791C13.0442 22.9103 11.3231 23.0958 9.90358 22.952C8.20904 22.7805 6.49232 22.1453 5.01958 21.1439C3.78195 20.3001 3.50248 19.9523 3.50248 19.2615C3.50248 17.8753 4.96191 15.4458 7.45936 12.6733C8.87887 11.1016 10.8529 9.25635 11.0702 9.30735C11.4872 9.40471 14.8097 12.7892 16.0518 14.3841ZM8.00942 6.29838C6.69194 5.05121 5.43213 3.7994 4.17675 3.35895C3.50248 3.1225 3.45369 3.13641 2.90363 3.73449C1.60833 5.14393 0.530389 7.42964 0.228743 9.40935C-0.0107986 10.995 -0.0418503 11.4401 0.042433 12.2143C0.290847 14.5557 0.809854 16.1737 1.839 17.8196C2.26041 18.4965 2.37575 18.6217 2.25154 18.2786C2.06523 17.7686 2.23823 16.54 2.67296 15.3114C3.3073 13.5032 5.06394 10.077 8.00942 6.29838ZM21.8319 9.24244C21.0822 5.53339 18.8376 3.20132 18.5226 3.20132C18.1988 3.20132 17.4491 3.50268 16.9257 3.84577C15.8921 4.51803 15.107 5.30157 14.0734 6.29374C15.9542 8.7649 18.6069 12.7568 19.5252 15.673C19.8268 16.6327 19.9555 17.5785 19.8534 18.0978C19.778 18.4919 19.778 18.4919 19.9155 18.3111C20.1861 17.9541 20.7983 16.8599 21.0423 16.2943C21.3705 15.5432 21.7077 14.4305 21.8674 13.5728C22.0581 12.5296 22.0404 10.2902 21.8319 9.24244ZM5.91121 1.62497C8.02716 1.50906 10.7775 3.2245 10.9815 3.26623C11.0126 3.27086 11.4429 3.0715 11.9397 2.8165C14.7743 1.37461 16.1095 1.62033 16.7039 1.64815C13.8693 -0.173921 9.93019 -0.670007 6.32819 1.1057C5.29018 1.62033 5.26356 1.65742 5.91121 1.62497Z" fill="#117810"/>
</svg>
